<?xml version="1.0" encoding="UTF-8"?>
<!DOCTYPE svg PUBLIC "-//W3C//DTD SVG 1.1//EN" "http://www.w3.org/Graphics/SVG/1.1/DTD/svg11.dtd">
<!-- Creator: CorelDRAW X7 -->
<svg xmlns="http://www.w3.org/2000/svg" xml:space="preserve" width="42.3332mm" height="10.3292mm" version="1.1" style="shape-rendering:geometricPrecision; text-rendering:geometricPrecision; image-rendering:optimizeQuality; fill-rule:evenodd; clip-rule:evenodd"
viewBox="0 0 4233 1033"
 xmlns:xlink="http://www.w3.org/1999/xlink">
 <defs>
  <style type="text/css">
   <![CDATA[
    .str1 {stroke:#0D133E;stroke-width:7.62}
    .str0 {stroke:white;stroke-width:7.62}
    .fil0 {fill:#0D133E}
    .fil2 {fill:#349650}
    .fil1 {fill:#FFC916}
    .fil3 {fill:white}
   ]]>
  </style>
 </defs>
 <g id="Camada_x0020_1">
  <metadata id="CorelCorpID_0Corel-Layer"/>
  <g id="_1013774960">
   <polygon class="fil0" points="140,95 1282,95 1141,938 0,938 "/>
   <polygon class="fil0" points="1358,95 4234,95 4234,651 1262,651 "/>
   <polygon class="fil1" points="1262,651 4234,651 4234,938 1215,938 "/>
   <polygon class="fil2" points="1260,661 4234,661 4234,603 1270,603 "/>
   <path class="fil3 str0" d="M1750 270c-7,-3 -14,-6 -23,-9 -8,-3 -17,-6 -26,-8 -10,-2 -20,-4 -30,-6 -11,-1 -21,-2 -33,-2 -13,0 -23,2 -32,4 -9,3 -16,6 -21,9 -5,4 -9,8 -11,12 -2,4 -3,8 -3,12 0,5 1,10 3,15 2,4 6,9 11,13 5,4 12,8 20,12 8,4 18,9 30,14 15,7 28,14 40,21 11,7 22,14 30,22 8,8 14,16 18,25 4,10 7,20 7,31 0,7 -1,14 -3,22 -2,8 -6,16 -11,24 -6,8 -12,16 -21,23 -9,7 -21,14 -35,19 -13,6 -29,11 -48,14 -19,4 -42,5 -67,5 -14,0 -28,0 -42,-2 -13,-1 -26,-3 -38,-5 -12,-3 -23,-5 -34,-8 -10,-3 -19,-6 -28,-9l19 -69c8,5 17,9 27,13 10,3 19,7 30,10 11,2 22,5 33,6 12,2 23,3 34,3 13,0 24,-1 33,-3 9,-2 16,-5 21,-9 6,-3 10,-7 13,-12 2,-4 3,-9 3,-15 0,-5 -1,-10 -3,-14 -2,-5 -7,-9 -12,-13 -5,-3 -12,-7 -21,-12 -9,-4 -19,-9 -32,-14 -14,-6 -26,-12 -37,-18 -11,-7 -21,-13 -29,-21 -8,-8 -14,-17 -18,-27 -5,-9 -7,-19 -7,-31 0,-14 3,-27 10,-40 7,-13 18,-24 32,-35 15,-9 34,-18 57,-24 22,-6 50,-9 81,-9 13,0 26,0 39,1 12,1 23,3 34,5 11,1 22,3 32,6 9,2 18,4 27,7l-19 67zm516 63c0,14 -2,28 -5,41 -4,15 -9,28 -15,41 -7,13 -15,26 -25,38 -10,12 -22,23 -35,33 -11,9 -23,17 -36,24 -13,6 -27,12 -43,17 -15,5 -32,9 -50,11 -18,3 -38,4 -59,4 -31,0 -59,-3 -85,-11 -24,-8 -45,-18 -62,-31 -18,-14 -31,-30 -39,-48 -9,-18 -14,-38 -14,-59 0,-15 2,-29 5,-44 4,-15 9,-29 17,-42 7,-14 16,-27 26,-39 11,-12 24,-23 38,-33 12,-8 23,-15 36,-21 13,-6 27,-12 42,-16 15,-5 31,-8 48,-11 17,-2 35,-3 55,-3 30,0 57,3 82,10 24,7 45,17 63,29 17,13 31,29 41,47 10,19 15,40 15,63zm-115 2c0,-13 -2,-24 -6,-35 -5,-10 -11,-19 -20,-26 -8,-7 -19,-12 -31,-16 -12,-4 -26,-6 -41,-6 -18,0 -35,3 -51,9 -16,6 -30,14 -43,25 -7,6 -14,14 -20,22 -6,8 -10,17 -15,27 -4,9 -6,19 -8,29 -3,9 -4,19 -4,28 0,13 3,25 7,35 5,11 11,19 20,26 8,7 18,12 31,16 11,4 24,6 39,6 19,0 36,-3 52,-9 17,-5 32,-14 44,-26 7,-7 14,-14 20,-23 6,-8 11,-17 15,-26 3,-9 7,-19 8,-28 2,-9 3,-19 3,-28zm431 201l-286 0 102 -346 109 0 -83 282 177 0 -19 64zm538 0l-285 0 101 -346 109 0 -83 282 177 0 -19 64z"/>
   <path class="fil3 str0" d="M3520 536l-14 -77 -171 0 -57 77 -121 0 276 -346 129 0 68 346 -110 0zm-39 -254c0,-2 -1,-5 -1,-9 0,-3 0,-6 0,-8 0,-3 1,-6 1,-8 0,-3 1,-4 1,-5l-2 0c-1,1 -2,3 -3,5 -1,3 -2,5 -4,8 -1,2 -3,5 -4,8 -2,3 -5,5 -7,8l-87 118 123 0 -17 -117zm626 -4c0,15 -3,28 -11,39 -7,12 -17,23 -30,32 -12,8 -27,15 -44,20 -17,6 -35,10 -55,12l0 1c14,3 26,9 36,18 9,9 17,21 21,36l34 100 -116 0 -26 -89c-4,-14 -11,-25 -21,-33 -9,-7 -23,-10 -41,-10l-18 0 -39 132 -109 0 102 -346 163 0c28,0 52,2 71,7 20,5 36,11 48,19 13,8 22,18 27,28 5,11 8,22 8,34zm-115 13c0,-14 -5,-24 -16,-31 -11,-8 -27,-12 -49,-12l-45 0 -29 97 44 0c16,0 30,-2 43,-5 11,-3 22,-7 29,-12 8,-5 14,-11 18,-17 3,-6 5,-13 5,-20z"/>
   <path class="fil0 str1" d="M1499 760c-1,-2 -3,-3 -6,-4 -2,-1 -5,-2 -7,-3 -3,-1 -5,-1 -8,-2 -3,0 -6,-1 -9,-1 -3,0 -6,1 -9,2 -2,1 -4,2 -5,3 -2,2 -3,3 -3,5 -1,1 -1,3 -1,4 0,2 0,4 1,5 0,2 1,4 3,5 1,2 3,3 5,5 2,1 5,3 8,5 4,2 8,5 11,7 3,3 6,6 8,8 2,3 4,6 5,10 1,3 2,7 2,11 0,2 0,5 -1,8 0,3 -2,6 -3,9 -1,3 -3,6 -6,8 -2,3 -5,5 -9,7 -4,2 -8,4 -13,5 -5,2 -11,2 -18,2 -4,0 -8,0 -11,0 -4,-1 -7,-2 -11,-2 -3,-1 -6,-2 -9,-3 -3,-1 -5,-3 -7,-4l5 -25c2,2 4,3 7,5 3,1 5,2 8,4 3,0 6,1 9,2 3,0 6,1 9,1 4,0 7,-1 9,-1 3,-1 4,-2 6,-3 1,-2 2,-3 3,-5 1,-2 1,-3 1,-5 0,-2 0,-4 -1,-6 0,-1 -1,-3 -3,-4 -1,-2 -3,-3 -6,-5 -2,-1 -5,-3 -8,-5 -4,-2 -7,-4 -10,-6 -3,-3 -6,-5 -8,-8 -2,-3 -4,-6 -5,-10 -1,-3 -2,-7 -2,-11 0,-5 1,-10 3,-15 2,-5 5,-9 8,-13 5,-3 10,-6 16,-9 6,-2 13,-3 22,-3 3,0 7,0 10,1 4,0 7,0 10,1 3,1 6,1 8,2 3,1 5,2 7,3l-5 25zm140 23c0,5 -1,10 -1,15 -1,5 -3,10 -4,15 -2,5 -4,9 -7,14 -3,4 -6,8 -9,12 -3,3 -7,6 -10,8 -4,3 -8,5 -12,7 -4,1 -9,3 -13,4 -5,1 -11,1 -16,1 -9,0 -16,-1 -23,-4 -7,-3 -13,-6 -17,-11 -5,-5 -9,-11 -11,-18 -2,-6 -4,-14 -4,-21 0,-6 1,-11 2,-17 1,-5 2,-10 4,-15 2,-5 5,-10 8,-14 2,-5 6,-9 10,-12 3,-3 6,-6 10,-8 3,-2 7,-4 11,-6 4,-2 8,-3 13,-4 4,-1 9,-1 15,-1 8,0 15,1 22,4 6,2 12,6 17,11 5,4 8,10 11,17 3,6 4,14 4,23zm-31 0c0,-4 0,-9 -2,-12 -1,-4 -3,-7 -5,-10 -2,-3 -5,-5 -8,-6 -4,-1 -7,-2 -12,-2 -4,0 -9,1 -13,3 -5,2 -9,6 -12,9 -2,3 -4,5 -5,9 -2,3 -3,6 -4,9 -1,4 -2,7 -3,11 0,3 -1,7 -1,10 0,5 1,9 2,13 1,4 3,7 6,10 2,2 5,4 8,6 3,1 7,2 11,2 5,0 9,-1 14,-4 4,-2 8,-5 12,-9 2,-3 3,-5 5,-8 2,-3 3,-7 4,-10 1,-3 2,-7 2,-10 1,-4 1,-7 1,-11zm117 74l-78 0 28 -127 29 0 -22 104 48 0 -5 23zm134 -52c-2,9 -4,16 -7,23 -3,7 -6,12 -11,17 -5,4 -10,8 -18,11 -6,2 -15,3 -25,3 -7,0 -14,-1 -19,-3 -6,-2 -11,-4 -15,-8 -4,-4 -7,-8 -9,-14 -3,-5 -4,-11 -4,-18 0,-3 1,-6 1,-10 1,-3 1,-7 2,-10l14 -66 30 0 -15 66c0,3 -1,6 -2,10 0,3 0,5 0,8 0,3 0,6 1,9 1,2 3,4 5,6 1,2 4,3 6,4 3,1 5,2 8,2 4,0 7,-1 10,-2 3,-1 6,-3 8,-5 2,-2 4,-5 6,-9 2,-4 4,-8 5,-14l16 -75 30 0 -17 75zm131 -44c-2,-1 -3,-2 -5,-3 -3,-1 -5,-2 -7,-2 -3,-1 -5,-2 -8,-2 -3,-1 -6,-1 -10,-1 -7,0 -14,1 -20,4 -6,3 -12,6 -16,11 -4,4 -7,9 -9,15 -2,6 -3,12 -3,18 0,6 1,11 2,15 2,4 4,7 7,10 3,3 7,5 11,6 4,2 9,3 14,3 4,0 7,-1 10,-1 3,0 5,-1 8,-2 3,-1 5,-1 7,-2 3,-1 5,-2 7,-3l-6 27c-5,1 -10,3 -15,4 -5,1 -11,1 -18,1 -9,0 -17,-1 -24,-4 -8,-2 -14,-6 -19,-11 -5,-5 -8,-10 -11,-17 -3,-7 -4,-15 -4,-23 0,-7 1,-13 2,-19 2,-7 4,-13 7,-18 3,-6 6,-11 11,-16 4,-5 10,-9 15,-12 6,-4 13,-6 21,-8 8,-2 16,-3 25,-3 4,0 7,0 10,1 4,0 7,0 10,1 3,1 5,1 8,2 2,0 4,1 6,2l-6 27zm-34 116c0,3 -1,6 -2,8 -1,2 -3,5 -6,6 -2,2 -5,4 -9,5 -4,1 -9,2 -14,2 -2,0 -3,0 -5,-1 -2,0 -3,0 -5,0l3 -12c3,0 5,1 7,1 4,0 7,-1 9,-2 2,-2 3,-3 3,-5 0,-4 -3,-6 -10,-6 0,0 -1,0 -2,0 0,0 -1,0 -2,0l4 -16 14 0 -2 7c3,1 5,1 7,1 2,1 4,2 5,3 2,1 3,2 3,4 1,1 2,3 2,5zm170 -94c0,5 -1,10 -1,15 -1,5 -3,10 -4,15 -2,5 -5,9 -7,14 -3,4 -6,8 -10,12 -3,3 -6,6 -9,8 -4,3 -8,5 -12,7 -4,1 -9,3 -14,4 -5,1 -10,1 -16,1 -8,0 -16,-1 -22,-4 -7,-3 -13,-6 -18,-11 -4,-5 -8,-11 -10,-18 -2,-6 -4,-14 -4,-21 0,-6 1,-11 2,-17 1,-5 2,-10 4,-15 2,-5 5,-10 7,-14 3,-5 7,-9 11,-12 3,-3 6,-6 9,-8 4,-2 8,-4 12,-6 4,-2 8,-3 13,-4 4,-1 9,-1 15,-1 8,0 15,1 22,4 6,2 12,6 17,11 5,4 8,10 11,17 3,6 4,14 4,23zm-31 0c0,-4 -1,-9 -2,-12 -1,-4 -3,-7 -5,-10 -2,-3 -5,-5 -9,-6 -3,-1 -7,-2 -11,-2 -5,0 -9,1 -13,3 -5,2 -9,6 -12,9 -2,3 -4,5 -5,9 -2,3 -3,6 -5,9 -1,4 -1,7 -2,11 0,3 -1,7 -1,10 0,5 1,9 2,13 1,4 3,7 5,10 3,2 5,4 9,6 3,1 6,2 10,2 5,0 10,-1 15,-4 4,-2 8,-5 11,-9 2,-3 4,-5 6,-8 1,-3 3,-7 4,-10 1,-3 2,-7 2,-10 1,-4 1,-7 1,-11zm15 -91c0,4 -1,8 -3,11 -1,3 -3,6 -5,8 -2,2 -4,3 -7,4 -3,1 -5,2 -8,2 -3,0 -6,0 -8,-1 -2,-1 -4,-2 -6,-3 -1,-1 -3,-1 -4,-2 -2,-1 -3,-1 -5,-1 -2,0 -3,0 -4,0 -2,1 -2,2 -3,2 -1,1 -2,2 -2,3 -1,1 -1,2 -1,4l-14 0c0,-4 1,-7 3,-10 1,-3 3,-6 5,-8 2,-3 4,-4 7,-5 2,-2 6,-2 9,-2 3,0 5,0 7,1 2,1 4,1 6,2 1,1 3,2 5,3 1,0 3,1 5,1 2,0 4,-1 6,-3 2,-1 3,-3 3,-6l14 0zm121 61l-45 0 -6 29 42 0 -5 23 -42 0 -6 29 48 0 -5 23 -78 0 28 -127 74 0 -5 23zm93 7c-1,-2 -3,-3 -6,-4 -2,-1 -5,-2 -7,-3 -3,-1 -5,-1 -8,-2 -3,0 -6,-1 -9,-1 -3,0 -6,1 -9,2 -2,1 -4,2 -5,3 -2,2 -3,3 -3,5 -1,1 -1,3 -1,4 0,2 0,4 1,5 0,2 1,4 3,5 1,2 3,3 5,5 2,1 5,3 8,5 4,2 8,5 11,7 3,3 6,6 8,8 2,3 4,6 5,10 1,3 2,7 2,11 0,2 0,5 -1,8 0,3 -2,6 -3,9 -1,3 -3,6 -6,8 -2,3 -5,5 -9,7 -4,2 -8,4 -13,5 -5,2 -11,2 -18,2 -4,0 -8,0 -11,0 -4,-1 -7,-2 -11,-2 -3,-1 -6,-2 -9,-3 -3,-1 -5,-3 -7,-4l5 -25c2,2 4,3 7,5 3,1 5,2 8,4 3,0 6,1 9,2 3,0 6,1 9,1 4,0 7,-1 9,-1 3,-1 4,-2 6,-3 1,-2 2,-3 3,-5 1,-2 1,-3 1,-5 0,-2 0,-4 -1,-6 0,-1 -1,-3 -3,-4 -1,-2 -3,-3 -6,-5 -2,-1 -5,-3 -8,-5 -4,-2 -7,-4 -10,-6 -3,-3 -6,-5 -8,-8 -2,-3 -4,-6 -5,-10 -1,-3 -2,-7 -2,-11 0,-5 1,-10 3,-15 2,-5 5,-9 8,-13 5,-3 10,-6 16,-9 6,-2 13,-3 22,-3 3,0 7,0 10,1 4,0 7,0 10,1 3,1 6,1 8,2 3,1 5,2 7,3l-5 25zm156 -7l-45 0 -7 29 43 0 -5 23 -43 0 -6 29 49 0 -5 23 -78 0 27 -127 75 0 -5 23zm133 104l-27 0 17 -76c2,-8 4,-17 7,-27l-1 0c-1,2 -2,4 -3,6 0,2 -1,3 -2,5 -1,2 -2,3 -3,5 -1,1 -1,2 -2,3l-35 46 -20 0 -13 -45c-1,-1 -1,-3 -1,-5 -1,-1 -1,-3 -1,-6l0 -9 -1 0c0,6 -1,11 -2,15 -1,5 -2,9 -2,12l-17 76 -26 0 27 -127 35 0 13 44c1,2 1,3 2,5 0,1 0,3 0,5 1,1 1,3 1,4 0,2 0,3 0,4l1 0c0,-1 1,-2 2,-4 1,-2 1,-3 2,-5 1,-2 2,-3 3,-5 1,-1 1,-3 2,-4l34 -44 37 0 -27 127zm177 -104l-45 0 -6 29 42 0 -5 23 -42 0 -7 29 49 0 -5 23 -78 0 28 -127 74 0 -5 23zm120 104l-27 0 -40 -81c-1,0 -1,-1 -2,-2 0,-1 0,-2 -1,-3 0,-1 -1,-2 -1,-3 -1,-1 -1,-1 -1,-2l0 0c-1,2 -1,5 -1,7 -1,3 -1,6 -2,8l-17 76 -27 0 27 -127 29 0 39 78c1,1 1,1 1,2 1,1 1,2 2,3 0,1 1,2 1,3 1,1 1,2 1,2l0 0c0,-1 0,-2 0,-3 1,-1 1,-2 1,-3 0,-1 0,-2 1,-3 0,-1 0,-2 0,-3l17 -76 27 0 -27 127zm126 -104l-45 0 -6 29 42 0 -5 23 -42 0 -7 29 49 0 -5 23 -78 0 28 -127 74 0 -5 23zm115 9c0,6 -1,11 -3,15 -2,4 -5,8 -8,11 -4,3 -8,6 -12,8 -5,2 -10,3 -15,4l0 1c3,1 7,3 9,6 3,4 5,8 6,13l9 37 -31 0 -7 -33c-1,-5 -3,-9 -6,-12 -2,-2 -6,-3 -11,-3l-5 0 -10 48 -30 0 28 -127 44 0c8,0 14,1 19,3 6,2 10,4 13,7 4,3 6,6 7,10 2,4 3,8 3,12zm-31 5c0,-5 -2,-9 -5,-11 -3,-3 -7,-4 -13,-4l-12 0 -8 35 12 0c4,0 8,-1 11,-2 3,-1 6,-2 8,-4 3,-2 4,-4 5,-6 1,-3 2,-5 2,-8zm155 -6c-2,-1 -4,-2 -6,-3 -3,-1 -6,-2 -8,-3 -3,-1 -6,-2 -10,-2 -3,-1 -6,-1 -10,-1 -8,0 -14,1 -20,4 -6,2 -12,5 -16,10 -4,4 -7,9 -9,15 -3,6 -4,13 -4,21 0,5 1,10 2,14 2,4 4,8 7,11 3,3 6,5 10,6 4,2 8,3 13,3 4,0 6,0 8,-1 2,0 4,-1 6,-1l6 -26 -27 0 5 -23 56 0 -14 64c-3,2 -6,3 -9,4 -3,1 -6,2 -10,3 -3,1 -7,2 -11,3 -5,0 -9,0 -14,0 -9,0 -17,-1 -25,-4 -7,-2 -13,-6 -18,-11 -5,-5 -9,-11 -12,-18 -2,-7 -4,-15 -4,-23 0,-7 1,-13 2,-20 2,-6 4,-12 7,-17 3,-6 7,-11 11,-16 5,-4 10,-8 16,-11 6,-4 13,-6 21,-8 7,-2 15,-3 24,-3 4,0 8,0 12,1 4,0 7,1 11,1 3,1 6,2 8,3 3,1 6,1 8,2l-6 26zm41 96l-29 0 27 -127 30 0 -28 127zm114 0l-3 -28 -47 0 -15 28 -33 0 75 -127 35 0 18 127 -30 0zm-10 -93c0,-1 0,-2 0,-3 0,-1 0,-2 0,-3 0,-2 0,-2 0,-3 0,-1 0,-2 0,-2l-1 0c0,0 0,1 0,2 -1,1 -1,1 -1,3 -1,0 -1,2 -2,3 0,1 -1,2 -1,3l-24 43 33 0 -4 -43zm199 -4c-2,-2 -4,-3 -6,-4 -3,-1 -5,-2 -7,-3 -3,-1 -6,-1 -9,-2 -2,0 -5,-1 -9,-1 -3,0 -6,1 -8,2 -3,1 -4,2 -6,3 -1,2 -2,3 -3,5 0,1 -1,3 -1,4 0,2 1,4 1,5 1,2 2,4 3,5 2,2 3,3 6,5 2,1 4,3 8,5 4,2 7,5 10,7 4,3 6,6 9,8 2,3 4,6 5,10 1,3 1,7 1,11 0,2 0,5 0,8 -1,3 -2,6 -3,9 -2,3 -4,6 -6,8 -3,3 -6,5 -9,7 -4,2 -8,4 -14,5 -5,2 -11,2 -18,2 -4,0 -7,0 -11,0 -4,-1 -7,-2 -10,-2 -4,-1 -7,-2 -9,-3 -3,-1 -6,-3 -8,-4l5 -25c2,2 5,3 7,5 3,1 6,2 9,4 2,0 5,1 8,2 4,0 7,1 10,1 3,0 6,-1 9,-1 2,-1 4,-2 5,-3 2,-2 3,-3 4,-5 0,-2 1,-3 1,-5 0,-2 -1,-4 -1,-6 -1,-1 -2,-3 -4,-4 -1,-2 -3,-3 -5,-5 -3,-1 -5,-3 -9,-5 -4,-2 -7,-4 -10,-6 -3,-3 -6,-5 -8,-8 -2,-3 -4,-6 -5,-10 -1,-3 -2,-7 -2,-11 0,-5 1,-10 3,-15 2,-5 5,-9 9,-13 4,-3 9,-6 15,-9 6,-2 14,-3 22,-3 4,0 7,0 11,1 3,0 6,0 9,1 3,1 6,1 9,2 2,1 5,2 7,3l-5 25zm139 23c0,5 0,10 -1,15 -1,5 -2,10 -4,15 -2,5 -4,9 -7,14 -2,4 -5,8 -9,12 -3,3 -6,6 -10,8 -3,3 -7,5 -11,7 -5,1 -9,3 -14,4 -5,1 -10,1 -16,1 -8,0 -16,-1 -23,-4 -7,-3 -12,-6 -17,-11 -5,-5 -8,-11 -10,-18 -3,-6 -4,-14 -4,-21 0,-6 0,-11 1,-17 1,-5 3,-10 5,-15 2,-5 4,-10 7,-14 3,-5 6,-9 10,-12 3,-3 6,-6 10,-8 3,-2 7,-4 11,-6 4,-2 9,-3 13,-4 5,-1 10,-1 15,-1 8,0 16,1 22,4 7,2 13,6 17,11 5,4 9,10 11,17 3,6 4,14 4,23zm-30 0c0,-4 -1,-9 -2,-12 -2,-4 -3,-7 -6,-10 -2,-3 -5,-5 -8,-6 -3,-1 -7,-2 -11,-2 -5,0 -10,1 -14,3 -4,2 -8,6 -11,9 -3,3 -4,5 -6,9 -2,3 -3,6 -4,9 -1,4 -2,7 -2,11 -1,3 -1,7 -1,10 0,5 0,9 2,13 1,4 3,7 5,10 2,2 5,4 8,6 3,1 7,2 11,2 5,0 10,-1 14,-4 5,-2 9,-5 12,-9 2,-3 4,-5 6,-8 1,-3 2,-7 3,-10 1,-3 2,-7 3,-10 0,-4 1,-7 1,-11zm116 74l-77 0 27 -127 30 0 -23 104 48 0 -5 23zm102 0l-3 -28 -47 0 -15 28 -33 0 75 -127 35 0 18 127 -30 0zm-10 -93c0,-1 0,-2 0,-3 0,-1 0,-2 0,-3 0,-2 0,-2 0,-3 0,-1 0,-2 0,-2l-1 0c0,0 0,1 0,2 -1,1 -1,1 -1,3 -1,0 -1,2 -2,3 0,1 -1,2 -1,3l-24 43 33 0 -4 -43zm169 -2c0,6 -1,11 -3,15 -2,4 -4,8 -8,11 -3,3 -7,6 -12,8 -4,2 -9,3 -15,4l0 1c4,1 7,3 10,6 3,4 5,8 6,13l9 37 -31 0 -7 -33c-1,-5 -3,-9 -6,-12 -3,-2 -6,-3 -11,-3l-5 0 -11 48 -29 0 27 -127 45 0c7,0 14,1 19,3 5,2 10,4 13,7 3,3 6,6 7,10 2,4 2,8 2,12zm-31 5c0,-5 -1,-9 -4,-11 -3,-3 -8,-4 -14,-4l-12 0 -8 35 12 0c5,0 9,-1 12,-2 3,-1 6,-2 8,-4 2,-2 4,-4 5,-6 1,-3 1,-5 1,-8z"/>
   <path class="fil1" d="M295 152l154 0c-64,37 -117,90 -154,154l0 -154zm574 0l154 0 0 154c-37,-64 -90,-117 -154,-154zm154 575l0 154 -154 0c64,-37 117,-90 154,-154zm-574 154l-154 0 0 -154c37,64 90,117 154,154z"/>
   <path class="fil1" d="M144 516l109 -108c-10,34 -15,71 -15,108 0,38 5,75 15,109l-109 -109zm406 -406l109 -109 109 109c-35,-9 -72,-14 -109,-14 -38,0 -74,5 -109,14zm515 298l109 108 -109 109c9,-34 14,-71 14,-109 0,-37 -5,-74 -14,-108zm-297 515l-109 108 -109 -108c35,9 71,14 109,14 37,0 74,-5 109,-14z"/>
   <path class="fil1" d="M401 962l-39 -148c51,51 116,89 188,109l-149 39zm-148 -554l-40 -149 149 -40c-52,52 -90,116 -109,189zm515 -298l148 -40 40 149c-51,-51 -116,-89 -188,-109zm297 515l40 149 -149 40c52,-52 90,-116 109,-189z"/>
   <path class="fil1" d="M792 1014l-133 -77 0 0c76,0 148,-21 210,-56l-77 133zm-497 -287l-134 -77 77 -134 0 0c0,77 21,149 57,211zm154 -575l77 -133 133 77 0 0c-77,0 -149,20 -210,56zm574 154l133 77 -77 134 0 -1c0,-76 -20,-148 -56,-210z"/>
   <path class="fil1" d="M526 1014l-77 -133c61,35 133,56 210,56l0 0 -133 77zm-288 -497l-77 -134 134 -77c-36,62 -57,134 -57,210l0 1zm421 -421l133 -77 77 133c-62,-36 -134,-56 -210,-56l0 0zm420 420l77 134 -133 77c36,-62 56,-134 56,-211l0 0z"/>
   <path class="fil1" d="M916 962l-148 -39c72,-20 137,-58 188,-109l-40 148zm-554 -148l-149 -40 40 -149c19,73 57,137 109,189zm0 -595l39 -149 149 40c-72,20 -137,58 -188,109zm594 0l149 40 -40 149c-19,-73 -57,-137 -109,-189z"/>
   <g>
    <path class="fil2" d="M431 548c0,10 -1,29 2,36 4,-2 13,-16 18,-20 1,-2 0,0 1,-2l21 -24c0,0 1,0 1,0l10 -9c10,-10 21,-19 32,-28 12,-9 24,-17 37,-24l19 -10c3,-2 5,-3 9,-5 2,-1 4,-2 5,-3 9,-5 40,-15 49,-18 4,-2 7,-2 11,-4 3,-1 7,-2 11,-3 8,-3 15,-4 24,-5 9,-1 16,-4 25,-4 8,-1 33,-5 39,-2 -2,1 -6,3 -8,4l-62 30c-1,1 -2,1 -2,2l-26 15c-3,2 -5,3 -9,5 -1,1 -2,2 -4,3l-26 17c-10,7 -22,14 -30,22 -2,1 -2,1 -5,3 -2,2 -4,4 -7,6l-65 58c0,0 0,1 0,1l-28 30c-2,3 -4,5 -6,8 -1,1 -2,2 -3,3l-1 1c0,0 0,1 0,1l-59 102c-5,15 -1,21 10,29 10,8 20,7 26,-6l9 -22c0,0 0,0 0,0 1,-1 1,-1 1,-1 0,0 0,-1 0,-1l8 -15c0,-1 1,-3 2,-4 0,-1 1,-2 1,-3l4 -7c1,-1 2,-2 3,-4l7 -11c4,-6 7,-14 12,-20l9 -13c1,0 28,12 36,13 5,1 10,4 14,4l20 5c22,4 50,5 72,0 5,-1 9,-2 14,-4 20,-6 37,-17 52,-33l4 -3c11,-14 20,-25 28,-43l38 -86c1,-1 1,-1 1,-2 1,-2 1,-1 2,-3 8,-17 16,-34 25,-50l18 -28c1,-2 2,-4 4,-6l31 -32c2,-1 4,-2 6,-4 4,-3 6,-5 10,-7 4,-3 7,-4 10,-8 -2,-3 -5,-5 -8,-7 0,0 0,0 0,0l-24 -11 -38 -9c-3,-1 -6,-1 -9,-2 -10,-3 -31,-3 -37,-5 -4,-1 -7,-1 -11,-1 -5,0 -4,-1 -9,-2 -38,-3 -72,-1 -110,3l-26 5c-3,1 -7,1 -10,1 -14,4 -29,9 -42,15l-17 8c0,0 -3,2 -3,2 -18,10 -38,23 -52,39l-10 12c0,0 0,0 0,1 0,0 -1,0 -1,0l-1 2c-1,1 -1,2 -2,3l-6 8c-5,7 -9,16 -14,25 0,1 0,0 -1,2 0,0 0,0 0,1l-10 27c-1,2 -1,6 -2,9 -4,16 -7,36 -7,53z"/>
    <path class="fil2" d="M659 152c201,0 364,163 364,364 0,202 -163,365 -364,365 -201,0 -364,-163 -364,-365 0,-201 163,-364 364,-364zm0 47c175,0 317,142 317,317 0,176 -142,318 -317,318 -175,0 -317,-142 -317,-318 0,-175 142,-317 317,-317z"/>
   </g>
  </g>
 </g>
</svg>
